# xmcd
#
# Track frame offsets:
# 150
# 10749
# 30771
# 39518
# 53142
# 64456
# 88826
# 105163
# 116404
# 123274
# 134147
# 145077
#
# Disc length: 2100 seconds
#
#
# Revision: 1
# Processed by: cddbd v1.5.2PL0 Copyright (c) Steve Scherf et al.
# Submitted via: HACP 1.20
#
DISCID=9a08320c
DTITLE=Yasumi no Kuni - Yasumi no Kuni
DYEAR=1969
DGENRE=Folk
TTITLE0=Dai 5 Hyougaki
TTITLE1=Mother
TTITLE2=Union Strip
TTITLE3=Dr. Coo Coo
TTITLE4=Let's Drop Dead
TTITLE5=Mary Jane
TTITLE6=Tobenai Fukurou
TTITLE7=Asa no Down Town
TTITLE8=Tanoshii Sasurai Bito
TTITLE9=Akuma Stocking
TTITLE10=Tabi Suru Obasan
TTITLE11=Tuihou no Uta
EXTD=YEAR: 1969
EXTT0=
EXTT1=
EXTT2=
EXTT3=
EXTT4=
EXTT5=
EXTT6=
EXTT7=
EXTT8=
EXTT9=
EXTT10=
EXTT11=
PLAYORDER=
